<?xml version="1.0" encoding="UTF-8"?> <svg xmlns="http://www.w3.org/2000/svg" width="58" height="40" viewBox="0 0 58 40" fill="none"> <path d="M4.48529 10.4262V18.2H9.99775C11.1844 18.2 12.2132 17.8122 13.0832 17.0444C13.9533 16.2766 14.3882 15.3085 14.3882 14.1437C14.3882 13.6998 14.3114 13.2864 14.1578 12.9037C14.0302 12.6277 13.8769 12.3643 13.7 12.117C13.0488 11.2078 12.2207 10.7221 11.6913 10.4754C12.0326 10.0829 12.3006 9.6322 12.4823 9.14484C12.5723 8.9022 12.7431 8.45652 12.7431 7.84884C12.7431 7.2883 12.6375 6.77566 12.4263 6.31092C12.1527 5.70771 11.781 5.35116 11.4984 5.08232C11.368 4.95542 11.2288 4.83805 11.0816 4.7311V4.7311C10.119 4.03587 9.00501 3.99555 8.64516 3.9823C8.38437 3.9823 8.19487 3.9823 8.16348 3.9823C8.0369 3.98331 7.22964 3.98403 4.48486 3.9823V7.78275L6.35038 9.64294V5.71736H8.63565C9.31 5.71736 9.85288 5.94531 10.2644 6.39516C10.676 6.84502 10.8815 7.34297 10.8815 7.88556C10.8815 8.42816 10.6691 8.92323 10.2443 9.38C9.81948 9.83676 9.256 10.0603 8.55473 10.0603H6.76409L8.4643 11.7567H9.99775C10.7393 11.7567 11.3397 12.0091 11.7977 12.4923C12.2558 12.9754 12.4856 13.5135 12.4856 14.0959C12.4856 14.6782 12.2632 15.212 11.8179 15.7015C11.3727 16.1909 10.7928 16.4335 10.078 16.4335H6.35081V12.2863L4.48529 10.4262Z" fill="#111111"></path> <path d="M22.1199 18.2C24.1071 18.2 25.7683 17.515 27.1035 16.145C28.2241 14.993 28.8747 13.5969 29.0544 12.0437H27.2584C27.0948 13.1848 26.6131 14.1938 25.8125 15.0043C24.8064 16.0233 23.5755 16.5316 22.1199 16.5293C20.6643 16.5293 19.4304 16.028 18.4179 15.0154C17.6222 14.1995 17.1435 13.1848 16.9809 12.0437H15.1855C15.3657 13.5969 16.0156 14.9909 17.1365 16.1434C18.4716 17.5164 20.1328 18.2019 22.1199 18.2Z" fill="#111111"></path> <path d="M22.1198 3.99872C20.1326 3.99872 18.4715 4.68512 17.1364 6.05792C16.012 7.21424 15.3613 8.58138 15.1836 10.1781H16.9793C17.1409 8.99725 17.6233 8.0097 18.4274 7.19552C19.4335 6.17687 20.6644 5.66735 22.1198 5.66696C23.5753 5.66658 24.8062 6.17615 25.8124 7.19567C26.6164 8.00985 27.0989 8.99797 27.2605 10.1781H29.0552C28.8758 8.58138 28.222 7.22605 27.0939 6.06599C25.7523 4.68608 24.0943 3.99699 22.1198 3.99872Z" fill="#111111"></path> <path d="M8.47656 23.7395V36.0829H10.3422V23.7395H8.47656Z" fill="#111111"></path> <path d="M50.8408 18.1879L50.8427 18.1901L50.8408 18.1873V18.1879Z" fill="#111111"></path> <path d="M50.8867 18.199L50.8888 18.201L50.8867 18.1984V18.199Z" fill="#111111"></path> <path d="M4.48558 0.250824H0.754395V4.05242L2.61934 5.91679V2.11519H55.4028V37.9484H45.9651L47.8382 39.8143H57.2683V0.250824H4.48558Z" fill="#111111"></path> <path d="M25.813 32.8821C24.8068 33.901 23.5758 34.4047 22.1204 34.4047C20.665 34.4047 19.4309 33.9072 18.4184 32.8945C17.6227 32.0787 17.144 31.0675 16.9816 29.9265H15.186C15.3662 31.4797 16.0162 32.8688 17.137 34.0211C18.4721 35.3946 20.1333 36.0736 22.1204 36.0736C24.1074 36.0736 25.7685 35.3968 27.1039 34.0231C28.2246 32.8711 28.8752 31.4797 29.0549 29.9265H27.2589C27.0953 31.0675 26.6136 32.0717 25.813 32.8821Z" fill="#111111"></path> <path d="M27.0943 23.9439C25.7526 22.5646 24.0946 21.8746 22.1203 21.874C20.1331 21.874 18.4719 22.5616 17.1369 23.9368C16.0125 25.0931 15.3618 26.4643 15.1841 28.061H16.9798C17.1413 26.8809 17.6239 25.8876 18.4278 25.0734C19.434 24.0548 20.6648 23.5444 22.1203 23.5424C23.5757 23.5424 24.8067 24.0562 25.8128 25.0749C26.6168 25.889 27.0993 26.8809 27.2609 28.061H29.0556C28.8761 26.4643 28.2224 25.1041 27.0943 23.9439Z" fill="#111111"></path> <path d="M41.1333 3.98199V8.85438H42.9988V5.96156L48.4834 11.4442H51.1139L43.6533 3.98199H41.1333Z" fill="#111111"></path> <path d="M40.6715 22.9651C40.5412 22.8382 40.402 22.7208 40.2549 22.6139V22.6139C39.2921 21.9186 38.1783 21.8782 37.8184 21.8651H33.6579V25.6405L35.5232 27.5011V23.6009H37.8085C38.4829 23.6009 39.0256 23.8292 39.4373 24.2791C39.849 24.729 40.0543 25.227 40.0543 25.7698C40.0543 26.3125 39.8419 26.8066 39.417 27.2638C38.992 27.721 38.4287 27.9438 37.7276 27.9438H35.9626L37.6626 29.6402H39.1702C39.9119 29.6402 40.5123 29.8931 40.9702 30.3762C41.4281 30.8593 41.6582 31.3977 41.6582 31.9801C41.6582 32.5624 41.4356 33.0979 40.9905 33.5875C40.5454 34.0771 39.9652 34.3219 39.2504 34.3219H35.5232V30.1315L33.6577 28.2713V36.0826H39.17C40.3569 36.0826 41.3854 35.6976 42.2555 34.9275C43.1256 34.1595 43.5606 33.1926 43.5606 32.0269C43.5606 31.5831 43.4838 31.1698 43.3302 30.7872C43.2027 30.5112 43.0494 30.2478 42.8726 30.0005C42.2214 29.0913 41.3931 28.6056 40.8639 28.3589C41.2052 27.9664 41.4731 27.5157 41.6548 27.0283C41.7449 26.7858 41.9157 26.34 41.9157 25.7323C41.9157 25.1716 41.8101 24.6589 41.5989 24.1943C41.3264 23.5905 40.9543 23.2341 40.6715 22.9651Z" fill="#111111"></path> <path d="M43.3345 37.9484H4.48558H2.61991V28.9742V11.5308V8.55573L0.754395 6.69006V39.8141H2.61991H4.48558H45.2075L43.3345 37.9484Z" fill="#111111"></path> <path d="M36.89 4.3943C36.2443 4.10969 35.5444 3.96901 34.8389 3.98203H29.8354V11.9128H31.7011V5.71737H34.9629C35.7648 5.71737 36.4079 5.97067 36.8925 6.48705C37.0386 6.643 37.4205 7.04735 37.5651 7.69852C37.5829 7.77859 37.7181 8.42025 37.4955 8.99049C37.1548 9.86385 36.0254 10.441 34.7054 10.3608L35.2108 11.483C35.2746 11.6245 35.3383 11.7661 35.4021 11.9078C37.2438 11.9366 38.8491 10.8227 39.3441 9.24868C39.8374 7.67908 39.0684 6.15672 38.3085 5.35968C37.7639 4.78828 37.1747 4.52001 36.89 4.3943Z" fill="#111111"></path> <path d="M29.8354 18.2H31.7011V13.7792H29.8354V18.2Z" fill="#111111"></path> <path d="M36.269 13.7785L38.3111 18.1994H40.3578L38.3159 13.7785H36.269Z" fill="#111111"></path> <path d="M46.2138 34.2172V31.176H44.3481V36.0829H53.5377V34.2172H46.2138Z" fill="#111111"></path> <path d="M51.6717 16.2204C49.8364 14.3868 48.0034 12.5532 46.1726 10.7196H43.542L51.0226 18.2H53.5377V13.3099H51.6717V16.2204Z" fill="#111111"></path> <path d="M53.5374 3.98199H51.6719V11.4444H53.5374V3.98199Z" fill="#111111"></path> <path d="M42.9988 10.7198H41.1333V18.1994H42.9988V10.7198Z" fill="#111111"></path> <path d="M44.3481 29.3104H50.8125V27.4405H46.2138V23.731H53.5377V21.8655H44.3481V29.3104Z" fill="#111111"></path> <path d="M6.61122 21.874H4.48535V23.7395H6.61122V21.874Z" fill="#111111"></path> <path d="M14.3932 21.874H8.47656V23.7395H14.3932V21.874Z" fill="#111111"></path> </svg> 